<svg xmlns="http://www.w3.org/2000/svg" xmlns:xlink="http://www.w3.org/1999/xlink" contentStyleType="text/css" data-diagram-type="CLASS" height="524px" preserveAspectRatio="none" style="width:1496px;height:524px;background:#FFFFFF;" version="1.1" viewBox="0 0 1496 524" width="1496px" zoomAndPan="magnify"><defs/><g><!--cluster lab2--><g id="cluster_lab2"><path d="M834.5,15 L863.5137,15 A3.75,3.75 0 0 1 866.0137,17.5 L873.0137,38.6094 L1486.5,38.6094 A2.5,2.5 0 0 1 1489,41.1094 L1489,514.5 A2.5,2.5 0 0 1 1486.5,517 L834.5,517 A2.5,2.5 0 0 1 832,514.5 L832,17.5 A2.5,2.5 0 0 1 834.5,15 " fill="transparent" style="stroke:#000000;stroke-width:1.5;"/><line style="stroke:#000000;stroke-width:1.5;" x1="832" x2="873.0137" y1="38.6094" y2="38.6094"/><text fill="#000000" font-family="sans-serif" font-size="14" font-weight="bold" lengthAdjust="spacing" textLength="28.0137" x="836" y="31.5332">lab2</text></g><!--cluster pizzaDecoratorDemo--><g id="cluster_pizzaDecoratorDemo"><path d="M8.5,6 L148.7549,6 A3.75,3.75 0 0 1 151.2549,8.5 L158.2549,29.6094 L805.5,29.6094 A2.5,2.5 0 0 1 808,32.1094 L808,361.5 A2.5,2.5 0 0 1 805.5,364 L8.5,364 A2.5,2.5 0 0 1 6,361.5 L6,8.5 A2.5,2.5 0 0 1 8.5,6 " fill="transparent" style="stroke:#000000;stroke-width:1.5;"/><line style="stroke:#000000;stroke-width:1.5;" x1="6" x2="158.2549" y1="29.6094" y2="29.6094"/><text fill="#000000" font-family="sans-serif" font-size="14" font-weight="bold" lengthAdjust="spacing" textLength="139.2549" x="10" y="22.5332">pizzaDecoratorDemo</text></g><!--class DecryptionInputStream--><g id="elem_DecryptionInputStream"><rect codeLine="1" fill="#F1F1F1" height="118.4375" id="DecryptionInputStream" rx="2.5" ry="2.5" style="stroke:#181818;stroke-width:0.5;" width="197.1924" x="848.5" y="230"/><ellipse cx="873.4062" cy="246" fill="#ADD1B2" rx="11" ry="11" style="stroke:#181818;stroke-width:1;"/><path d="M876.1718,241.875 Q876.328,241.6563 876.5155,241.5469 Q876.703,241.4375 876.9218,241.4375 Q877.2968,241.4375 877.5312,241.7031 Q877.7655,241.9531 877.7655,242.5625 L877.7655,244.0156 Q877.7655,244.625 877.5312,244.8906 Q877.2968,245.1563 876.9218,245.1563 Q876.578,245.1563 876.3749,244.9531 Q876.1718,244.7656 876.0624,244.25 Q876.0155,243.8906 875.828,243.7031 Q875.4999,243.3281 874.8905,243.1094 Q874.2812,242.8906 873.6562,242.8906 Q872.8905,242.8906 872.2499,243.2188 Q871.6249,243.5469 871.1249,244.2969 Q870.6405,245.0469 870.6405,246.0781 L870.6405,247.1719 Q870.6405,248.4063 871.5312,249.2344 Q872.4218,250.0469 874.0155,250.0469 Q874.953,250.0469 875.6093,249.7969 Q875.9999,249.6406 876.4218,249.2031 Q876.6874,248.9375 876.828,248.8594 Q876.9843,248.7813 877.1874,248.7813 Q877.5155,248.7813 877.7655,249.0469 Q878.0312,249.2969 878.0312,249.6406 Q878.0312,249.9844 877.6874,250.3906 Q877.1874,250.9688 876.3905,251.2969 Q875.3124,251.75 874.0155,251.75 Q872.4999,251.75 871.2968,251.125 Q870.3124,250.625 869.6249,249.5625 Q868.9374,248.4844 868.9374,247.2031 L868.9374,246.0469 Q868.9374,244.7188 869.5468,243.5781 Q870.1718,242.4219 871.2655,241.8125 Q872.3593,241.1875 873.5937,241.1875 Q874.328,241.1875 874.9687,241.3594 Q875.6249,241.5156 876.1718,241.875 Z " fill="#000000"/><text fill="#000000" font-family="sans-serif" font-size="14" lengthAdjust="spacing" textLength="143.1787" x="889.6075" y="251.7285">DecryptionInputStream</text><line style="stroke:#181818;stroke-width:0.5;" x1="849.5" x2="1044.6924" y1="262" y2="262"/><rect fill="transparent" height="6" style="stroke:#C82930;stroke-width:1;" width="6" x="856.5" y="273.3047"/><text fill="#000000" font-family="sans-serif" font-size="14" lengthAdjust="spacing" textLength="171.1924" x="868.5" y="280.5332">decryptor : lab2.IDecryption</text><line style="stroke:#181818;stroke-width:0.5;" x1="849.5" x2="1044.6924" y1="287.6094" y2="287.6094"/><ellipse cx="859.5" cy="301.9141" fill="#84BE84" rx="3" ry="3" style="stroke:#038048;stroke-width:1;"/><text fill="#000000" font-family="sans-serif" font-size="14" lengthAdjust="spacing" textLength="80.9238" x="868.5" y="306.1426">&lt;init&gt;() : void</text><ellipse cx="859.5" cy="319.5234" fill="#84BE84" rx="3" ry="3" style="stroke:#038048;stroke-width:1;"/><text fill="#000000" font-family="sans-serif" font-size="14" lengthAdjust="spacing" textLength="63.7998" x="868.5" y="323.752">read() : int</text><ellipse cx="859.5" cy="337.1328" fill="#84BE84" rx="3" ry="3" style="stroke:#038048;stroke-width:1;"/><text fill="#000000" font-family="sans-serif" font-size="14" lengthAdjust="spacing" textLength="63.7998" x="868.5" y="341.3613">read() : int</text></g><!--class IDecryption--><g id="elem_IDecryption"><rect codeLine="14" fill="#F1F1F1" height="65.6094" id="IDecryption" rx="2.5" ry="2.5" style="stroke:#181818;stroke-width:0.5;" width="120.1377" x="964" y="435"/><ellipse cx="986.799" cy="451" fill="#ADD1B2" rx="11" ry="11" style="stroke:#181818;stroke-width:1;"/><path d="M989.5646,446.875 Q989.7208,446.6563 989.9083,446.5469 Q990.0958,446.4375 990.3146,446.4375 Q990.6896,446.4375 990.924,446.7031 Q991.1583,446.9531 991.1583,447.5625 L991.1583,449.0156 Q991.1583,449.625 990.924,449.8906 Q990.6896,450.1563 990.3146,450.1563 Q989.9708,450.1563 989.7677,449.9531 Q989.5646,449.7656 989.4552,449.25 Q989.4083,448.8906 989.2208,448.7031 Q988.8927,448.3281 988.2833,448.1094 Q987.674,447.8906 987.049,447.8906 Q986.2833,447.8906 985.6427,448.2188 Q985.0177,448.5469 984.5177,449.2969 Q984.0333,450.0469 984.0333,451.0781 L984.0333,452.1719 Q984.0333,453.4063 984.924,454.2344 Q985.8146,455.0469 987.4083,455.0469 Q988.3458,455.0469 989.0021,454.7969 Q989.3927,454.6406 989.8146,454.2031 Q990.0802,453.9375 990.2208,453.8594 Q990.3771,453.7813 990.5802,453.7813 Q990.9083,453.7813 991.1583,454.0469 Q991.424,454.2969 991.424,454.6406 Q991.424,454.9844 991.0802,455.3906 Q990.5802,455.9688 989.7833,456.2969 Q988.7052,456.75 987.4083,456.75 Q985.8927,456.75 984.6896,456.125 Q983.7052,455.625 983.0177,454.5625 Q982.3302,453.4844 982.3302,452.2031 L982.3302,451.0469 Q982.3302,449.7188 982.9396,448.5781 Q983.5646,447.4219 984.6583,446.8125 Q985.7521,446.1875 986.9865,446.1875 Q987.7208,446.1875 988.3615,446.3594 Q989.0177,446.5156 989.5646,446.875 Z " fill="#000000"/><text fill="#000000" font-family="sans-serif" font-size="14" lengthAdjust="spacing" textLength="70.8066" x="1002.5321" y="456.7285">IDecryption</text><line style="stroke:#181818;stroke-width:0.5;" x1="965" x2="1083.1377" y1="467" y2="467"/><line style="stroke:#181818;stroke-width:0.5;" x1="965" x2="1083.1377" y1="475" y2="475"/><ellipse cx="975" cy="489.3047" fill="#84BE84" rx="3" ry="3" style="stroke:#038048;stroke-width:1;"/><text fill="#000000" font-family="sans-serif" font-size="14" lengthAdjust="spacing" textLength="94.1377" x="984" y="493.5332">decrypt() : char</text></g><!--class EncryptionOutputStream--><g id="elem_EncryptionOutputStream"><rect codeLine="8" fill="#F1F1F1" height="100.8281" id="EncryptionOutputStream" rx="2.5" ry="2.5" style="stroke:#181818;stroke-width:0.5;" width="196.4199" x="1277" y="238.5"/><ellipse cx="1297.0058" cy="254.5" fill="#ADD1B2" rx="11" ry="11" style="stroke:#181818;stroke-width:1;"/><path d="M1299.7714,250.375 Q1299.9277,250.1563 1300.1152,250.0469 Q1300.3027,249.9375 1300.5214,249.9375 Q1300.8964,249.9375 1301.1308,250.2031 Q1301.3652,250.4531 1301.3652,251.0625 L1301.3652,252.5156 Q1301.3652,253.125 1301.1308,253.3906 Q1300.8964,253.6563 1300.5214,253.6563 Q1300.1777,253.6563 1299.9746,253.4531 Q1299.7714,253.2656 1299.6621,252.75 Q1299.6152,252.3906 1299.4277,252.2031 Q1299.0996,251.8281 1298.4902,251.6094 Q1297.8808,251.3906 1297.2558,251.3906 Q1296.4902,251.3906 1295.8496,251.7188 Q1295.2246,252.0469 1294.7246,252.7969 Q1294.2402,253.5469 1294.2402,254.5781 L1294.2402,255.6719 Q1294.2402,256.9063 1295.1308,257.7344 Q1296.0214,258.5469 1297.6152,258.5469 Q1298.5527,258.5469 1299.2089,258.2969 Q1299.5996,258.1406 1300.0214,257.7031 Q1300.2871,257.4375 1300.4277,257.3594 Q1300.5839,257.2813 1300.7871,257.2813 Q1301.1152,257.2813 1301.3652,257.5469 Q1301.6308,257.7969 1301.6308,258.1406 Q1301.6308,258.4844 1301.2871,258.8906 Q1300.7871,259.4688 1299.9902,259.7969 Q1298.9121,260.25 1297.6152,260.25 Q1296.0996,260.25 1294.8964,259.625 Q1293.9121,259.125 1293.2246,258.0625 Q1292.5371,256.9844 1292.5371,255.7031 L1292.5371,254.5469 Q1292.5371,253.2188 1293.1464,252.0781 Q1293.7714,250.9219 1294.8652,250.3125 Q1295.9589,249.6875 1297.1933,249.6875 Q1297.9277,249.6875 1298.5683,249.8594 Q1299.2246,250.0156 1299.7714,250.375 Z " fill="#000000"/><text fill="#000000" font-family="sans-serif" font-size="14" lengthAdjust="spacing" textLength="153.2959" x="1312.1182" y="260.2285">EncryptionOutputStream</text><line style="stroke:#181818;stroke-width:0.5;" x1="1278" x2="1472.4199" y1="270.5" y2="270.5"/><rect fill="transparent" height="6" style="stroke:#C82930;stroke-width:1;" width="6" x="1285" y="281.8047"/><text fill="#000000" font-family="sans-serif" font-size="14" lengthAdjust="spacing" textLength="170.4199" x="1297" y="289.0332">encryptor : lab2.IEncryption</text><line style="stroke:#181818;stroke-width:0.5;" x1="1278" x2="1472.4199" y1="296.1094" y2="296.1094"/><ellipse cx="1288" cy="310.4141" fill="#84BE84" rx="3" ry="3" style="stroke:#038048;stroke-width:1;"/><text fill="#000000" font-family="sans-serif" font-size="14" lengthAdjust="spacing" textLength="80.9238" x="1297" y="314.6426">&lt;init&gt;() : void</text><ellipse cx="1288" cy="328.0234" fill="#84BE84" rx="3" ry="3" style="stroke:#038048;stroke-width:1;"/><text fill="#000000" font-family="sans-serif" font-size="14" lengthAdjust="spacing" textLength="76.2344" x="1297" y="332.252">write() : void</text></g><!--class IEncryption--><g id="elem_IEncryption"><rect codeLine="17" fill="#F1F1F1" height="65.6094" id="IEncryption" rx="2.5" ry="2.5" style="stroke:#181818;stroke-width:0.5;" width="120.1377" x="1179" y="435"/><ellipse cx="1202.1466" cy="451" fill="#ADD1B2" rx="11" ry="11" style="stroke:#181818;stroke-width:1;"/><path d="M1204.9122,446.875 Q1205.0685,446.6563 1205.256,446.5469 Q1205.4435,446.4375 1205.6622,446.4375 Q1206.0372,446.4375 1206.2716,446.7031 Q1206.506,446.9531 1206.506,447.5625 L1206.506,449.0156 Q1206.506,449.625 1206.2716,449.8906 Q1206.0372,450.1563 1205.6622,450.1563 Q1205.3185,450.1563 1205.1153,449.9531 Q1204.9122,449.7656 1204.8028,449.25 Q1204.756,448.8906 1204.5685,448.7031 Q1204.2403,448.3281 1203.631,448.1094 Q1203.0216,447.8906 1202.3966,447.8906 Q1201.631,447.8906 1200.9903,448.2188 Q1200.3653,448.5469 1199.8653,449.2969 Q1199.381,450.0469 1199.381,451.0781 L1199.381,452.1719 Q1199.381,453.4063 1200.2716,454.2344 Q1201.1622,455.0469 1202.756,455.0469 Q1203.6935,455.0469 1204.3497,454.7969 Q1204.7403,454.6406 1205.1622,454.2031 Q1205.4278,453.9375 1205.5685,453.8594 Q1205.7247,453.7813 1205.9278,453.7813 Q1206.256,453.7813 1206.506,454.0469 Q1206.7716,454.2969 1206.7716,454.6406 Q1206.7716,454.9844 1206.4278,455.3906 Q1205.9278,455.9688 1205.131,456.2969 Q1204.0528,456.75 1202.756,456.75 Q1201.2403,456.75 1200.0372,456.125 Q1199.0528,455.625 1198.3653,454.5625 Q1197.6778,453.4844 1197.6778,452.2031 L1197.6778,451.0469 Q1197.6778,449.7188 1198.2872,448.5781 Q1198.9122,447.4219 1200.006,446.8125 Q1201.0997,446.1875 1202.3341,446.1875 Q1203.0685,446.1875 1203.7091,446.3594 Q1204.3653,446.5156 1204.9122,446.875 Z " fill="#000000"/><text fill="#000000" font-family="sans-serif" font-size="14" lengthAdjust="spacing" textLength="70.0342" x="1217.9569" y="456.7285">IEncryption</text><line style="stroke:#181818;stroke-width:0.5;" x1="1180" x2="1298.1377" y1="467" y2="467"/><line style="stroke:#181818;stroke-width:0.5;" x1="1180" x2="1298.1377" y1="475" y2="475"/><ellipse cx="1190" cy="489.3047" fill="#84BE84" rx="3" ry="3" style="stroke:#038048;stroke-width:1;"/><text fill="#000000" font-family="sans-serif" font-size="14" lengthAdjust="spacing" textLength="94.1377" x="1199" y="493.5332">encrypt() : char</text></g><!--class SubstitutionCipher--><g id="elem_SubstitutionCipher"><rect codeLine="20" fill="#F1F1F1" height="136.0469" id="SubstitutionCipher" rx="2.5" ry="2.5" style="stroke:#181818;stroke-width:0.5;" width="161.3994" x="1080.5" y="221"/><ellipse cx="1102.25" cy="237" fill="#ADD1B2" rx="11" ry="11" style="stroke:#181818;stroke-width:1;"/><path d="M1105.0156,232.875 Q1105.1719,232.6563 1105.3594,232.5469 Q1105.5469,232.4375 1105.7656,232.4375 Q1106.1406,232.4375 1106.375,232.7031 Q1106.6094,232.9531 1106.6094,233.5625 L1106.6094,235.0156 Q1106.6094,235.625 1106.375,235.8906 Q1106.1406,236.1563 1105.7656,236.1563 Q1105.4219,236.1563 1105.2188,235.9531 Q1105.0156,235.7656 1104.9063,235.25 Q1104.8594,234.8906 1104.6719,234.7031 Q1104.3438,234.3281 1103.7344,234.1094 Q1103.125,233.8906 1102.5,233.8906 Q1101.7344,233.8906 1101.0938,234.2188 Q1100.4688,234.5469 1099.9688,235.2969 Q1099.4844,236.0469 1099.4844,237.0781 L1099.4844,238.1719 Q1099.4844,239.4063 1100.375,240.2344 Q1101.2656,241.0469 1102.8594,241.0469 Q1103.7969,241.0469 1104.4531,240.7969 Q1104.8438,240.6406 1105.2656,240.2031 Q1105.5313,239.9375 1105.6719,239.8594 Q1105.8281,239.7813 1106.0313,239.7813 Q1106.3594,239.7813 1106.6094,240.0469 Q1106.875,240.2969 1106.875,240.6406 Q1106.875,240.9844 1106.5313,241.3906 Q1106.0313,241.9688 1105.2344,242.2969 Q1104.1563,242.75 1102.8594,242.75 Q1101.3438,242.75 1100.1406,242.125 Q1099.1563,241.625 1098.4688,240.5625 Q1097.7813,239.4844 1097.7813,238.2031 L1097.7813,237.0469 Q1097.7813,235.7188 1098.3906,234.5781 Q1099.0156,233.4219 1100.1094,232.8125 Q1101.2031,232.1875 1102.4375,232.1875 Q1103.1719,232.1875 1103.8125,232.3594 Q1104.4688,232.5156 1105.0156,232.875 Z " fill="#000000"/><text fill="#000000" font-family="sans-serif" font-size="14" lengthAdjust="spacing" textLength="114.3994" x="1117.75" y="242.7285">SubstitutionCipher</text><line style="stroke:#181818;stroke-width:0.5;" x1="1081.5" x2="1240.8994" y1="253" y2="253"/><rect fill="transparent" height="6" style="stroke:#C82930;stroke-width:1;" width="6" x="1088.5" y="264.3047"/><text fill="#000000" font-family="sans-serif" font-size="14" lengthAdjust="spacing" textLength="135.3994" x="1100.5" y="271.5332">encryptionKey : char[]</text><rect fill="transparent" height="6" style="stroke:#C82930;stroke-width:1;" width="6" x="1088.5" y="281.9141"/><text fill="#000000" font-family="sans-serif" font-size="14" lengthAdjust="spacing" textLength="135.3994" x="1100.5" y="289.1426">decryptionKey : char[]</text><line style="stroke:#181818;stroke-width:0.5;" x1="1081.5" x2="1240.8994" y1="296.2188" y2="296.2188"/><ellipse cx="1091.5" cy="310.5234" fill="#84BE84" rx="3" ry="3" style="stroke:#038048;stroke-width:1;"/><text fill="#000000" font-family="sans-serif" font-size="14" lengthAdjust="spacing" textLength="80.9238" x="1100.5" y="314.752">&lt;init&gt;() : void</text><ellipse cx="1091.5" cy="328.1328" fill="#84BE84" rx="3" ry="3" style="stroke:#038048;stroke-width:1;"/><text fill="#000000" font-family="sans-serif" font-size="14" lengthAdjust="spacing" textLength="94.1377" x="1100.5" y="332.3613">encrypt() : char</text><ellipse cx="1091.5" cy="345.7422" fill="#84BE84" rx="3" ry="3" style="stroke:#038048;stroke-width:1;"/><text fill="#000000" font-family="sans-serif" font-size="14" lengthAdjust="spacing" textLength="94.1377" x="1100.5" y="349.9707">decrypt() : char</text></g><!--class TextEditorApp--><g id="elem_TextEditorApp"><rect codeLine="29" fill="#F1F1F1" height="83.2188" id="TextEditorApp" rx="2.5" ry="2.5" style="stroke:#181818;stroke-width:0.5;" width="178.4961" x="1072" y="51"/><ellipse cx="1113.0038" cy="67" fill="#ADD1B2" rx="11" ry="11" style="stroke:#181818;stroke-width:1;"/><path d="M1115.7694,62.875 Q1115.9256,62.6563 1116.1131,62.5469 Q1116.3006,62.4375 1116.5194,62.4375 Q1116.8944,62.4375 1117.1288,62.7031 Q1117.3631,62.9531 1117.3631,63.5625 L1117.3631,65.0156 Q1117.3631,65.625 1117.1288,65.8906 Q1116.8944,66.1563 1116.5194,66.1563 Q1116.1756,66.1563 1115.9725,65.9531 Q1115.7694,65.7656 1115.66,65.25 Q1115.6131,64.8906 1115.4256,64.7031 Q1115.0975,64.3281 1114.4881,64.1094 Q1113.8788,63.8906 1113.2538,63.8906 Q1112.4881,63.8906 1111.8475,64.2188 Q1111.2225,64.5469 1110.7225,65.2969 Q1110.2381,66.0469 1110.2381,67.0781 L1110.2381,68.1719 Q1110.2381,69.4063 1111.1288,70.2344 Q1112.0194,71.0469 1113.6131,71.0469 Q1114.5506,71.0469 1115.2069,70.7969 Q1115.5975,70.6406 1116.0194,70.2031 Q1116.285,69.9375 1116.4256,69.8594 Q1116.5819,69.7813 1116.785,69.7813 Q1117.1131,69.7813 1117.3631,70.0469 Q1117.6288,70.2969 1117.6288,70.6406 Q1117.6288,70.9844 1117.285,71.3906 Q1116.785,71.9688 1115.9881,72.2969 Q1114.91,72.75 1113.6131,72.75 Q1112.0975,72.75 1110.8944,72.125 Q1109.91,71.625 1109.2225,70.5625 Q1108.535,69.4844 1108.535,68.2031 L1108.535,67.0469 Q1108.535,65.7188 1109.1444,64.5781 Q1109.7694,63.4219 1110.8631,62.8125 Q1111.9569,62.1875 1113.1913,62.1875 Q1113.9256,62.1875 1114.5663,62.3594 Q1115.2225,62.5156 1115.7694,62.875 Z " fill="#000000"/><text fill="#000000" font-family="sans-serif" font-size="14" lengthAdjust="spacing" textLength="88.71" x="1132.7824" y="72.7285">TextEditorApp</text><line style="stroke:#181818;stroke-width:0.5;" x1="1073" x2="1249.4961" y1="83" y2="83"/><line style="stroke:#181818;stroke-width:0.5;" x1="1073" x2="1249.4961" y1="91" y2="91"/><ellipse cx="1083" cy="105.3047" fill="#84BE84" rx="3" ry="3" style="stroke:#038048;stroke-width:1;"/><text fill="#000000" font-family="sans-serif" font-size="14" lengthAdjust="spacing" textLength="80.9238" x="1092" y="109.5332">&lt;init&gt;() : void</text><ellipse cx="1083" cy="122.9141" fill="#84BE84" rx="3" ry="3" style="stroke:#038048;stroke-width:1;"/><text fill="#000000" font-family="sans-serif" font-size="14" lengthAdjust="spacing" textLength="152.4961" x="1092" y="127.1426">main(String[] args) : void</text></g><!--class PlainPizza--><g id="elem_PlainPizza"><rect codeLine="34" fill="#F1F1F1" height="100.8281" id="PlainPizza" rx="2.5" ry="2.5" style="stroke:#181818;stroke-width:0.5;" width="232.9854" x="558.5" y="42"/><ellipse cx="638.0601" cy="58" fill="#ADD1B2" rx="11" ry="11" style="stroke:#181818;stroke-width:1;"/><path d="M640.8257,53.875 Q640.9819,53.6563 641.1694,53.5469 Q641.3569,53.4375 641.5757,53.4375 Q641.9507,53.4375 642.1851,53.7031 Q642.4194,53.9531 642.4194,54.5625 L642.4194,56.0156 Q642.4194,56.625 642.1851,56.8906 Q641.9507,57.1563 641.5757,57.1563 Q641.2319,57.1563 641.0288,56.9531 Q640.8257,56.7656 640.7163,56.25 Q640.6694,55.8906 640.4819,55.7031 Q640.1538,55.3281 639.5444,55.1094 Q638.9351,54.8906 638.3101,54.8906 Q637.5444,54.8906 636.9038,55.2188 Q636.2788,55.5469 635.7788,56.2969 Q635.2944,57.0469 635.2944,58.0781 L635.2944,59.1719 Q635.2944,60.4063 636.1851,61.2344 Q637.0757,62.0469 638.6694,62.0469 Q639.6069,62.0469 640.2632,61.7969 Q640.6538,61.6406 641.0757,61.2031 Q641.3413,60.9375 641.4819,60.8594 Q641.6382,60.7813 641.8413,60.7813 Q642.1694,60.7813 642.4194,61.0469 Q642.6851,61.2969 642.6851,61.6406 Q642.6851,61.9844 642.3413,62.3906 Q641.8413,62.9688 641.0444,63.2969 Q639.9663,63.75 638.6694,63.75 Q637.1538,63.75 635.9507,63.125 Q634.9663,62.625 634.2788,61.5625 Q633.5913,60.4844 633.5913,59.2031 L633.5913,58.0469 Q633.5913,56.7188 634.2007,55.5781 Q634.8257,54.4219 635.9194,53.8125 Q637.0132,53.1875 638.2476,53.1875 Q638.9819,53.1875 639.6226,53.3594 Q640.2788,53.5156 640.8257,53.875 Z " fill="#000000"/><text fill="#000000" font-family="sans-serif" font-size="14" lengthAdjust="spacing" textLength="65.3652" x="658.5601" y="63.7285">PlainPizza</text><line style="stroke:#181818;stroke-width:0.5;" x1="559.5" x2="790.4854" y1="74" y2="74"/><line style="stroke:#181818;stroke-width:0.5;" x1="559.5" x2="790.4854" y1="82" y2="82"/><ellipse cx="569.5" cy="96.3047" fill="#84BE84" rx="3" ry="3" style="stroke:#038048;stroke-width:1;"/><text fill="#000000" font-family="sans-serif" font-size="14" lengthAdjust="spacing" textLength="80.9238" x="578.5" y="100.5332">&lt;init&gt;() : void</text><ellipse cx="569.5" cy="113.9141" fill="#84BE84" rx="3" ry="3" style="stroke:#038048;stroke-width:1;"/><text fill="#000000" font-family="sans-serif" font-size="14" lengthAdjust="spacing" textLength="206.9854" x="578.5" y="118.1426">getDescription() : java.lang.String</text><ellipse cx="569.5" cy="131.5234" fill="#84BE84" rx="3" ry="3" style="stroke:#038048;stroke-width:1;"/><text fill="#000000" font-family="sans-serif" font-size="14" lengthAdjust="spacing" textLength="88.71" x="578.5" y="135.752">cost() : double</text></g><!--class Pizza--><g id="elem_Pizza"><rect codeLine="61" fill="#F1F1F1" height="83.2188" id="Pizza" rx="2.5" ry="2.5" style="stroke:#181818;stroke-width:0.5;" width="232.9854" x="428.5" y="247.5"/><ellipse cx="523.6255" cy="263.5" fill="#ADD1B2" rx="11" ry="11" style="stroke:#181818;stroke-width:1;"/><path d="M526.3911,259.375 Q526.5474,259.1563 526.7349,259.0469 Q526.9224,258.9375 527.1411,258.9375 Q527.5161,258.9375 527.7505,259.2031 Q527.9849,259.4531 527.9849,260.0625 L527.9849,261.5156 Q527.9849,262.125 527.7505,262.3906 Q527.5161,262.6563 527.1411,262.6563 Q526.7974,262.6563 526.5942,262.4531 Q526.3911,262.2656 526.2817,261.75 Q526.2349,261.3906 526.0474,261.2031 Q525.7192,260.8281 525.1099,260.6094 Q524.5005,260.3906 523.8755,260.3906 Q523.1099,260.3906 522.4692,260.7188 Q521.8442,261.0469 521.3442,261.7969 Q520.8599,262.5469 520.8599,263.5781 L520.8599,264.6719 Q520.8599,265.9063 521.7505,266.7344 Q522.6411,267.5469 524.2349,267.5469 Q525.1724,267.5469 525.8286,267.2969 Q526.2192,267.1406 526.6411,266.7031 Q526.9067,266.4375 527.0474,266.3594 Q527.2036,266.2813 527.4067,266.2813 Q527.7349,266.2813 527.9849,266.5469 Q528.2505,266.7969 528.2505,267.1406 Q528.2505,267.4844 527.9067,267.8906 Q527.4067,268.4688 526.6099,268.7969 Q525.5317,269.25 524.2349,269.25 Q522.7192,269.25 521.5161,268.625 Q520.5317,268.125 519.8442,267.0625 Q519.1567,265.9844 519.1567,264.7031 L519.1567,263.5469 Q519.1567,262.2188 519.7661,261.0781 Q520.3911,259.9219 521.4849,259.3125 Q522.5786,258.6875 523.813,258.6875 Q524.5474,258.6875 525.188,258.8594 Q525.8442,259.0156 526.3911,259.375 Z " fill="#000000"/><text fill="#000000" font-family="sans-serif" font-size="14" lengthAdjust="spacing" textLength="34.2344" x="544.1255" y="269.2285">Pizza</text><line style="stroke:#181818;stroke-width:0.5;" x1="429.5" x2="660.4854" y1="279.5" y2="279.5"/><line style="stroke:#181818;stroke-width:0.5;" x1="429.5" x2="660.4854" y1="287.5" y2="287.5"/><ellipse cx="439.5" cy="301.8047" fill="#84BE84" rx="3" ry="3" style="stroke:#038048;stroke-width:1;"/><text fill="#000000" font-family="sans-serif" font-size="14" lengthAdjust="spacing" textLength="206.9854" x="448.5" y="306.0332">getDescription() : java.lang.String</text><ellipse cx="439.5" cy="319.4141" fill="#84BE84" rx="3" ry="3" style="stroke:#038048;stroke-width:1;"/><text fill="#000000" font-family="sans-serif" font-size="14" lengthAdjust="spacing" textLength="88.71" x="448.5" y="323.6426">cost() : double</text></g><!--class PizzaDecorator--><g id="elem_PizzaDecorator"><rect codeLine="40" fill="#90D5FF" height="118.4375" id="PizzaDecorator" rx="2.5" ry="2.5" style="stroke:#181818;stroke-width:0.5;" width="303.792" x="22" y="230"/><ellipse cx="121.7944" cy="246" fill="#ADD1B2" rx="11" ry="11" style="stroke:#181818;stroke-width:1;"/><path d="M124.5601,241.875 Q124.7163,241.6563 124.9038,241.5469 Q125.0913,241.4375 125.3101,241.4375 Q125.6851,241.4375 125.9194,241.7031 Q126.1538,241.9531 126.1538,242.5625 L126.1538,244.0156 Q126.1538,244.625 125.9194,244.8906 Q125.6851,245.1563 125.3101,245.1563 Q124.9663,245.1563 124.7632,244.9531 Q124.5601,244.7656 124.4507,244.25 Q124.4038,243.8906 124.2163,243.7031 Q123.8882,243.3281 123.2788,243.1094 Q122.6694,242.8906 122.0444,242.8906 Q121.2788,242.8906 120.6382,243.2188 Q120.0132,243.5469 119.5132,244.2969 Q119.0288,245.0469 119.0288,246.0781 L119.0288,247.1719 Q119.0288,248.4063 119.9194,249.2344 Q120.8101,250.0469 122.4038,250.0469 Q123.3413,250.0469 123.9976,249.7969 Q124.3882,249.6406 124.8101,249.2031 Q125.0757,248.9375 125.2163,248.8594 Q125.3726,248.7813 125.5757,248.7813 Q125.9038,248.7813 126.1538,249.0469 Q126.4194,249.2969 126.4194,249.6406 Q126.4194,249.9844 126.0757,250.3906 Q125.5757,250.9688 124.7788,251.2969 Q123.7007,251.75 122.4038,251.75 Q120.8882,251.75 119.6851,251.125 Q118.7007,250.625 118.0132,249.5625 Q117.3257,248.4844 117.3257,247.2031 L117.3257,246.0469 Q117.3257,244.7188 117.9351,243.5781 Q118.5601,242.4219 119.6538,241.8125 Q120.7476,241.1875 121.9819,241.1875 Q122.7163,241.1875 123.3569,241.3594 Q124.0132,241.5156 124.5601,241.875 Z " fill="#000000"/><text fill="#000000" font-family="sans-serif" font-size="14" lengthAdjust="spacing" textLength="95.7031" x="142.2944" y="251.7285">PizzaDecorator</text><line style="stroke:#181818;stroke-width:0.5;" x1="23" x2="324.792" y1="262" y2="262"/><rect fill="transparent" height="6" style="stroke:#C82930;stroke-width:1;" width="6" x="30" y="273.3047"/><text fill="#000000" font-family="sans-serif" font-size="14" lengthAdjust="spacing" textLength="277.792" x="42" y="280.5332">decoratedPizza : pizzaDecoratorDemo.Pizza</text><line style="stroke:#181818;stroke-width:0.5;" x1="23" x2="324.792" y1="287.6094" y2="287.6094"/><ellipse cx="33" cy="301.9141" fill="#84BE84" rx="3" ry="3" style="stroke:#038048;stroke-width:1;"/><text fill="#000000" font-family="sans-serif" font-size="14" lengthAdjust="spacing" textLength="80.9238" x="42" y="306.1426">&lt;init&gt;() : void</text><ellipse cx="33" cy="319.5234" fill="#84BE84" rx="3" ry="3" style="stroke:#038048;stroke-width:1;"/><text fill="#000000" font-family="sans-serif" font-size="14" lengthAdjust="spacing" textLength="206.9854" x="42" y="323.752">getDescription() : java.lang.String</text><ellipse cx="33" cy="337.1328" fill="#84BE84" rx="3" ry="3" style="stroke:#038048;stroke-width:1;"/><text fill="#000000" font-family="sans-serif" font-size="14" lengthAdjust="spacing" textLength="88.71" x="42" y="341.3613">cost() : double</text></g><!--class CheeseDecorator--><g id="elem_CheeseDecorator"><rect codeLine="49" fill="#F1F1F1" height="100.8281" id="CheeseDecorator" rx="2.5" ry="2.5" style="stroke:#181818;stroke-width:0.5;" width="232.9854" x="290.5" y="42"/><ellipse cx="347.8809" cy="58" fill="#ADD1B2" rx="11" ry="11" style="stroke:#181818;stroke-width:1;"/><path d="M350.6465,53.875 Q350.8027,53.6563 350.9902,53.5469 Q351.1777,53.4375 351.3965,53.4375 Q351.7715,53.4375 352.0059,53.7031 Q352.2402,53.9531 352.2402,54.5625 L352.2402,56.0156 Q352.2402,56.625 352.0059,56.8906 Q351.7715,57.1563 351.3965,57.1563 Q351.0527,57.1563 350.8496,56.9531 Q350.6465,56.7656 350.5371,56.25 Q350.4902,55.8906 350.3027,55.7031 Q349.9746,55.3281 349.3652,55.1094 Q348.7559,54.8906 348.1309,54.8906 Q347.3652,54.8906 346.7246,55.2188 Q346.0996,55.5469 345.5996,56.2969 Q345.1152,57.0469 345.1152,58.0781 L345.1152,59.1719 Q345.1152,60.4063 346.0059,61.2344 Q346.8965,62.0469 348.4902,62.0469 Q349.4277,62.0469 350.084,61.7969 Q350.4746,61.6406 350.8965,61.2031 Q351.1621,60.9375 351.3027,60.8594 Q351.459,60.7813 351.6621,60.7813 Q351.9902,60.7813 352.2402,61.0469 Q352.5059,61.2969 352.5059,61.6406 Q352.5059,61.9844 352.1621,62.3906 Q351.6621,62.9688 350.8652,63.2969 Q349.7871,63.75 348.4902,63.75 Q346.9746,63.75 345.7715,63.125 Q344.7871,62.625 344.0996,61.5625 Q343.4121,60.4844 343.4121,59.2031 L343.4121,58.0469 Q343.4121,56.7188 344.0215,55.5781 Q344.6465,54.4219 345.7402,53.8125 Q346.834,53.1875 348.0684,53.1875 Q348.8027,53.1875 349.4434,53.3594 Q350.0996,53.5156 350.6465,53.875 Z " fill="#000000"/><text fill="#000000" font-family="sans-serif" font-size="14" lengthAdjust="spacing" textLength="109.7236" x="368.3809" y="63.7285">CheeseDecorator</text><line style="stroke:#181818;stroke-width:0.5;" x1="291.5" x2="522.4854" y1="74" y2="74"/><line style="stroke:#181818;stroke-width:0.5;" x1="291.5" x2="522.4854" y1="82" y2="82"/><ellipse cx="301.5" cy="96.3047" fill="#84BE84" rx="3" ry="3" style="stroke:#038048;stroke-width:1;"/><text fill="#000000" font-family="sans-serif" font-size="14" lengthAdjust="spacing" textLength="80.9238" x="310.5" y="100.5332">&lt;init&gt;() : void</text><ellipse cx="301.5" cy="113.9141" fill="#84BE84" rx="3" ry="3" style="stroke:#038048;stroke-width:1;"/><text fill="#000000" font-family="sans-serif" font-size="14" lengthAdjust="spacing" textLength="206.9854" x="310.5" y="118.1426">getDescription() : java.lang.String</text><ellipse cx="301.5" cy="131.5234" fill="#84BE84" rx="3" ry="3" style="stroke:#038048;stroke-width:1;"/><text fill="#000000" font-family="sans-serif" font-size="14" lengthAdjust="spacing" textLength="88.71" x="310.5" y="135.752">cost() : double</text></g><!--class PepperoniDecorator--><g id="elem_PepperoniDecorator"><rect codeLine="55" fill="#F1F1F1" height="100.8281" id="PepperoniDecorator" rx="2.5" ry="2.5" style="stroke:#181818;stroke-width:0.5;" width="232.9854" x="22.5" y="42"/><ellipse cx="72.0947" cy="58" fill="#ADD1B2" rx="11" ry="11" style="stroke:#181818;stroke-width:1;"/><path d="M74.8604,53.875 Q75.0166,53.6563 75.2041,53.5469 Q75.3916,53.4375 75.6104,53.4375 Q75.9854,53.4375 76.2197,53.7031 Q76.4541,53.9531 76.4541,54.5625 L76.4541,56.0156 Q76.4541,56.625 76.2197,56.8906 Q75.9854,57.1563 75.6104,57.1563 Q75.2666,57.1563 75.0635,56.9531 Q74.8604,56.7656 74.751,56.25 Q74.7041,55.8906 74.5166,55.7031 Q74.1885,55.3281 73.5791,55.1094 Q72.9697,54.8906 72.3447,54.8906 Q71.5791,54.8906 70.9385,55.2188 Q70.3135,55.5469 69.8135,56.2969 Q69.3291,57.0469 69.3291,58.0781 L69.3291,59.1719 Q69.3291,60.4063 70.2197,61.2344 Q71.1104,62.0469 72.7041,62.0469 Q73.6416,62.0469 74.2979,61.7969 Q74.6885,61.6406 75.1104,61.2031 Q75.376,60.9375 75.5166,60.8594 Q75.6729,60.7813 75.876,60.7813 Q76.2041,60.7813 76.4541,61.0469 Q76.7197,61.2969 76.7197,61.6406 Q76.7197,61.9844 76.376,62.3906 Q75.876,62.9688 75.0791,63.2969 Q74.001,63.75 72.7041,63.75 Q71.1885,63.75 69.9854,63.125 Q69.001,62.625 68.3135,61.5625 Q67.626,60.4844 67.626,59.2031 L67.626,58.0469 Q67.626,56.7188 68.2354,55.5781 Q68.8604,54.4219 69.9541,53.8125 Q71.0479,53.1875 72.2822,53.1875 Q73.0166,53.1875 73.6572,53.3594 Q74.3135,53.5156 74.8604,53.875 Z " fill="#000000"/><text fill="#000000" font-family="sans-serif" font-size="14" lengthAdjust="spacing" textLength="125.2959" x="92.5947" y="63.7285">PepperoniDecorator</text><line style="stroke:#181818;stroke-width:0.5;" x1="23.5" x2="254.4854" y1="74" y2="74"/><line style="stroke:#181818;stroke-width:0.5;" x1="23.5" x2="254.4854" y1="82" y2="82"/><ellipse cx="33.5" cy="96.3047" fill="#84BE84" rx="3" ry="3" style="stroke:#038048;stroke-width:1;"/><text fill="#000000" font-family="sans-serif" font-size="14" lengthAdjust="spacing" textLength="80.9238" x="42.5" y="100.5332">&lt;init&gt;() : void</text><ellipse cx="33.5" cy="113.9141" fill="#84BE84" rx="3" ry="3" style="stroke:#038048;stroke-width:1;"/><text fill="#000000" font-family="sans-serif" font-size="14" lengthAdjust="spacing" textLength="206.9854" x="42.5" y="118.1426">getDescription() : java.lang.String</text><ellipse cx="33.5" cy="131.5234" fill="#84BE84" rx="3" ry="3" style="stroke:#038048;stroke-width:1;"/><text fill="#000000" font-family="sans-serif" font-size="14" lengthAdjust="spacing" textLength="88.71" x="42.5" y="135.752">cost() : double</text></g><!--link DecryptionInputStream to IDecryption--><g id="link_DecryptionInputStream_IDecryption"><path codeLine="7" d="M972.43,348.45 C984.95,377.25 997.1867,405.358 1007.6567,429.428 " fill="transparent" id="DecryptionInputStream-to-IDecryption" style="stroke:#181818;stroke-width:1;"/><polygon fill="#181818" points="1010.05,434.93,1010.1281,425.0815,1008.0556,430.345,1002.7921,428.2725,1010.05,434.93" style="stroke:#181818;stroke-width:1;"/></g><!--link EncryptionOutputStream to IEncryption--><g id="link_EncryptionOutputStream_IEncryption"><path codeLine="13" d="M1337.16,339.58 C1321.64,359.88 1303.48,383.58 1287,405 C1279.53,414.71 1275.0523,420.5051 1267.6223,430.1051 " fill="transparent" id="EncryptionOutputStream-to-IEncryption" style="stroke:#181818;stroke-width:1;"/><polygon fill="#181818" points="1263.95,434.85,1272.6218,430.1809,1267.0103,430.8959,1266.2953,425.2844,1263.95,434.85" style="stroke:#181818;stroke-width:1;"/></g><!--link SubstitutionCipher to IEncryption--><g id="link_SubstitutionCipher_IEncryption"><path codeLine="27" d="M1190.6,357.17 C1202.32,383.77 1207.9946,396.627 1217.5346,418.287 " fill="transparent" id="SubstitutionCipher-to-IEncryption" style="stroke:#181818;stroke-width:1;stroke-dasharray:7.0,7.0;"/><polygon fill="transparent" points="1224.79,434.76,1223.0256,415.8686,1212.0436,420.7055,1224.79,434.76" style="stroke:#181818;stroke-width:1;"/><text fill="#000000" font-family="sans-serif" font-size="13" lengthAdjust="spacing" textLength="66.4663" x="1212" y="401.4951">implements</text></g><!--link SubstitutionCipher to IDecryption--><g id="link_SubstitutionCipher_IDecryption"><path codeLine="28" d="M1109.01,357.17 C1088.42,383.77 1076.7395,398.8673 1059.9695,420.5273 " fill="transparent" id="SubstitutionCipher-to-IDecryption" style="stroke:#181818;stroke-width:1;stroke-dasharray:7.0,7.0;"/><polygon fill="transparent" points="1048.95,434.76,1064.7138,424.2005,1055.2253,416.8541,1048.95,434.76" style="stroke:#181818;stroke-width:1;"/><text fill="#000000" font-family="sans-serif" font-size="13" lengthAdjust="spacing" textLength="66.4663" x="1085" y="401.4951">implements</text></g><!--link TextEditorApp to SubstitutionCipher--><g id="link_TextEditorApp_SubstitutionCipher"><path codeLine="33" d="M1161,134.27 C1161,159.34 1161,186.06 1161,214.87 " fill="transparent" id="TextEditorApp-to-SubstitutionCipher" style="stroke:#181818;stroke-width:1;"/><polygon fill="#181818" points="1161,220.87,1165,211.87,1161,215.87,1157,211.87,1161,220.87" style="stroke:#181818;stroke-width:1;"/></g><!--link PlainPizza to Pizza--><g id="link_PlainPizza_Pizza"><path codeLine="39" d="M641.86,143.08 C620.27,175.39 602.4528,202.0452 582.1728,232.3852 " fill="transparent" id="PlainPizza-to-Pizza" style="stroke:#181818;stroke-width:1;stroke-dasharray:7.0,7.0;"/><polygon fill="transparent" points="572.17,247.35,587.1611,235.7195,577.1846,229.051,572.17,247.35" style="stroke:#181818;stroke-width:1;"/><text fill="#000000" font-family="sans-serif" font-size="13" lengthAdjust="spacing" textLength="66.4663" x="623" y="187.4951">implements</text></g><!--link PizzaDecorator to Pizza--><g id="link_PizzaDecorator_Pizza"><path codeLine="46" d="M326.24,289 C360.34,289 377.98,289 410.37,289 " fill="transparent" id="PizzaDecorator-to-Pizza" style="stroke:#181818;stroke-width:1;stroke-dasharray:7.0,7.0;"/><polygon fill="transparent" points="428.37,289,410.37,283,410.37,295,428.37,289" style="stroke:#181818;stroke-width:1;"/><text fill="#000000" font-family="sans-serif" font-size="13" lengthAdjust="spacing" textLength="66.4663" x="344.25" y="282.4951">implements</text></g><!--link PizzaDecorator to Pizza--><g id="link_PizzaDecorator_Pizza"><path codeLine="47" d="M326.16,268.02 C354.43,266.25 383.73,265.85 411.25,268 C416.87,268.44 416.6541,268.3412 422.4441,268.9612 " fill="transparent" id="PizzaDecorator-to-Pizza-1" style="stroke:#181818;stroke-width:1;"/><polygon fill="#181818" points="428.41,269.6,419.887,264.6645,423.4384,269.0676,419.0353,272.619,428.41,269.6" style="stroke:#181818;stroke-width:1;"/></g><!--link PizzaDecorator to Pizza--><g id="link_PizzaDecorator_Pizza"><path codeLine="48" d="M326.06,309.98 C352.93,311.62 380.66,311.97 406.75,310 C413.77,309.47 415.0052,309.4391 422.2652,308.6491 " fill="transparent" id="PizzaDecorator-to-Pizza-2" style="stroke:#90D5FF;stroke-width:1;"/><polygon fill="#90D5FF" points="428.23,308,418.8501,304.9971,423.2593,308.5409,419.7155,312.9501,428.23,308" style="stroke:#90D5FF;stroke-width:1;"/><text fill="#000000" font-family="sans-serif" font-size="13" lengthAdjust="spacing" textLength="57.0908" x="348.75" y="306.4951">decorates</text></g><!--link CheeseDecorator to Pizza--><g id="link_CheeseDecorator_Pizza"><path codeLine="54" d="M442.18,143.08 C465.1,175.39 491.1577,212.1168 512.6877,242.4568 " fill="transparent" id="CheeseDecorator-to-Pizza" style="stroke:#181818;stroke-width:1;"/><polygon fill="#181818" points="516.16,247.35,514.2136,237.6954,513.2664,243.2724,507.6894,242.3251,516.16,247.35" style="stroke:#181818;stroke-width:1;"/></g><!--link PepperoniDecorator to Pizza--><g id="link_PepperoniDecorator_Pizza"><path codeLine="60" d="M242.5,143.08 C309.93,175.39 391.3988,214.418 454.7388,244.758 " fill="transparent" id="PepperoniDecorator-to-Pizza" style="stroke:#181818;stroke-width:1;"/><polygon fill="#181818" points="460.15,247.35,453.7611,239.8545,455.6406,245.19,450.3051,247.0695,460.15,247.35" style="stroke:#181818;stroke-width:1;"/></g><!--SRC=[nPHDQy9048Rl_eg5NYoIK0ezL8fGZ8BqKC7UnCEQ375BihliRcorxN_l9bdplR6qO3tEp3lpp3iR_GXBYIAylNKzyCM1AyBeWl94hPG07AEF0T8_1mLvbWaqpiiNPNrMCa8FX18r6LxhYZqZWOdgBa4M8rHrXRu6FTCTPzAUvfVCCtgAFYUg3Gsq2LqAUg7V155G1WsZPLe9MUbUWQom6xBHoSviXB_3Ge-eAif6XSBiOb6iagrKH2MfP4hu3aJJ19ruWeCHhpVritObRTwqGAmRsSXSzxFjc7uDCOyW1ghaJvIbgJLbnPCNU5UpWEZpFt9U-DYzL8m97Ufx4XgkDmYBK3QFN-zMtBmDQH0uEHwnXcG2Quq7CNENaPwoJEDdQ49G7aXVa6o_BFkAzzYDC0tTdD9K-apcbWSisKQWOVldPWPsbQIX3YDjfKK8NTtVU7VpUVMF8ir0a0ySMrjSr84wyyzTEDyhVGdM5S_AdRNnRpEnyvmixJdAT0SWeQIwwFjg3k-rnFwkW7CGZ99_sg9Z_YyNgNtXVw3y1W00]--></g></svg>
