<svg xmlns="http://www.w3.org/2000/svg" xmlns:xlink="http://www.w3.org/1999/xlink" contentStyleType="text/css" data-diagram-type="CLASS" height="489px" preserveAspectRatio="none" style="width:670px;height:489px;background:#FFFFFF;" version="1.1" viewBox="0 0 670 489" width="670px" zoomAndPan="magnify"><defs/><g><!--cluster lab2--><g id="cluster_lab2"><path d="M8.5,6 L37.5137,6 A3.75,3.75 0 0 1 40.0137,8.5 L47.0137,29.6094 L660.5,29.6094 A2.5,2.5 0 0 1 663,32.1094 L663,479.5 A2.5,2.5 0 0 1 660.5,482 L8.5,482 A2.5,2.5 0 0 1 6,479.5 L6,8.5 A2.5,2.5 0 0 1 8.5,6 " fill="transparent" style="stroke:#000000;stroke-width:1.5;"/><line style="stroke:#000000;stroke-width:1.5;" x1="6" x2="47.0137" y1="29.6094" y2="29.6094"/><text fill="#000000" font-family="sans-serif" font-size="14" font-weight="bold" lengthAdjust="spacing" textLength="28.0137" x="10" y="22.5332">lab2</text></g><!--class DecryptionInputStream--><g id="elem_DecryptionInputStream"><rect codeLine="1" fill="#F1F1F1" height="118.4375" id="DecryptionInputStream" rx="2.5" ry="2.5" style="stroke:#181818;stroke-width:0.5;" width="197.1924" x="22.5" y="195"/><ellipse cx="47.4062" cy="211" fill="#ADD1B2" rx="11" ry="11" style="stroke:#181818;stroke-width:1;"/><path d="M50.1718,206.875 Q50.328,206.6563 50.5155,206.5469 Q50.703,206.4375 50.9218,206.4375 Q51.2968,206.4375 51.5312,206.7031 Q51.7655,206.9531 51.7655,207.5625 L51.7655,209.0156 Q51.7655,209.625 51.5312,209.8906 Q51.2968,210.1563 50.9218,210.1563 Q50.578,210.1563 50.3749,209.9531 Q50.1718,209.7656 50.0624,209.25 Q50.0155,208.8906 49.828,208.7031 Q49.4999,208.3281 48.8905,208.1094 Q48.2812,207.8906 47.6562,207.8906 Q46.8905,207.8906 46.2499,208.2188 Q45.6249,208.5469 45.1249,209.2969 Q44.6405,210.0469 44.6405,211.0781 L44.6405,212.1719 Q44.6405,213.4063 45.5312,214.2344 Q46.4218,215.0469 48.0155,215.0469 Q48.953,215.0469 49.6093,214.7969 Q49.9999,214.6406 50.4218,214.2031 Q50.6874,213.9375 50.828,213.8594 Q50.9843,213.7813 51.1874,213.7813 Q51.5155,213.7813 51.7655,214.0469 Q52.0312,214.2969 52.0312,214.6406 Q52.0312,214.9844 51.6874,215.3906 Q51.1874,215.9688 50.3905,216.2969 Q49.3124,216.75 48.0155,216.75 Q46.4999,216.75 45.2968,216.125 Q44.3124,215.625 43.6249,214.5625 Q42.9374,213.4844 42.9374,212.2031 L42.9374,211.0469 Q42.9374,209.7188 43.5468,208.5781 Q44.1718,207.4219 45.2655,206.8125 Q46.3593,206.1875 47.5937,206.1875 Q48.328,206.1875 48.9687,206.3594 Q49.6249,206.5156 50.1718,206.875 Z " fill="#000000"/><text fill="#000000" font-family="sans-serif" font-size="14" lengthAdjust="spacing" textLength="143.1787" x="63.6075" y="216.7285">DecryptionInputStream</text><line style="stroke:#181818;stroke-width:0.5;" x1="23.5" x2="218.6924" y1="227" y2="227"/><rect fill="transparent" height="6" style="stroke:#C82930;stroke-width:1;" width="6" x="30.5" y="238.3047"/><text fill="#000000" font-family="sans-serif" font-size="14" lengthAdjust="spacing" textLength="171.1924" x="42.5" y="245.5332">decryptor : lab2.IDecryption</text><line style="stroke:#181818;stroke-width:0.5;" x1="23.5" x2="218.6924" y1="252.6094" y2="252.6094"/><ellipse cx="33.5" cy="266.9141" fill="#84BE84" rx="3" ry="3" style="stroke:#038048;stroke-width:1;"/><text fill="#000000" font-family="sans-serif" font-size="14" lengthAdjust="spacing" textLength="80.9238" x="42.5" y="271.1426">&lt;init&gt;() : void</text><ellipse cx="33.5" cy="284.5234" fill="#84BE84" rx="3" ry="3" style="stroke:#038048;stroke-width:1;"/><text fill="#000000" font-family="sans-serif" font-size="14" lengthAdjust="spacing" textLength="63.7998" x="42.5" y="288.752">read() : int</text><ellipse cx="33.5" cy="302.1328" fill="#84BE84" rx="3" ry="3" style="stroke:#038048;stroke-width:1;"/><text fill="#000000" font-family="sans-serif" font-size="14" lengthAdjust="spacing" textLength="63.7998" x="42.5" y="306.3613">read() : int</text></g><!--class IDecryption--><g id="elem_IDecryption"><rect codeLine="14" fill="#F1F1F1" height="65.6094" id="IDecryption" rx="2.5" ry="2.5" style="stroke:#181818;stroke-width:0.5;" width="120.1377" x="138" y="400"/><ellipse cx="160.799" cy="416" fill="#ADD1B2" rx="11" ry="11" style="stroke:#181818;stroke-width:1;"/><path d="M163.5646,411.875 Q163.7208,411.6563 163.9083,411.5469 Q164.0958,411.4375 164.3146,411.4375 Q164.6896,411.4375 164.924,411.7031 Q165.1583,411.9531 165.1583,412.5625 L165.1583,414.0156 Q165.1583,414.625 164.924,414.8906 Q164.6896,415.1563 164.3146,415.1563 Q163.9708,415.1563 163.7677,414.9531 Q163.5646,414.7656 163.4552,414.25 Q163.4083,413.8906 163.2208,413.7031 Q162.8927,413.3281 162.2833,413.1094 Q161.674,412.8906 161.049,412.8906 Q160.2833,412.8906 159.6427,413.2188 Q159.0177,413.5469 158.5177,414.2969 Q158.0333,415.0469 158.0333,416.0781 L158.0333,417.1719 Q158.0333,418.4063 158.924,419.2344 Q159.8146,420.0469 161.4083,420.0469 Q162.3458,420.0469 163.0021,419.7969 Q163.3927,419.6406 163.8146,419.2031 Q164.0802,418.9375 164.2208,418.8594 Q164.3771,418.7813 164.5802,418.7813 Q164.9083,418.7813 165.1583,419.0469 Q165.424,419.2969 165.424,419.6406 Q165.424,419.9844 165.0802,420.3906 Q164.5802,420.9688 163.7833,421.2969 Q162.7052,421.75 161.4083,421.75 Q159.8927,421.75 158.6896,421.125 Q157.7052,420.625 157.0177,419.5625 Q156.3302,418.4844 156.3302,417.2031 L156.3302,416.0469 Q156.3302,414.7188 156.9396,413.5781 Q157.5646,412.4219 158.6583,411.8125 Q159.7521,411.1875 160.9865,411.1875 Q161.7208,411.1875 162.3615,411.3594 Q163.0177,411.5156 163.5646,411.875 Z " fill="#000000"/><text fill="#000000" font-family="sans-serif" font-size="14" lengthAdjust="spacing" textLength="70.8066" x="176.5321" y="421.7285">IDecryption</text><line style="stroke:#181818;stroke-width:0.5;" x1="139" x2="257.1377" y1="432" y2="432"/><line style="stroke:#181818;stroke-width:0.5;" x1="139" x2="257.1377" y1="440" y2="440"/><ellipse cx="149" cy="454.3047" fill="#84BE84" rx="3" ry="3" style="stroke:#038048;stroke-width:1;"/><text fill="#000000" font-family="sans-serif" font-size="14" lengthAdjust="spacing" textLength="94.1377" x="158" y="458.5332">decrypt() : char</text></g><!--class EncryptionOutputStream--><g id="elem_EncryptionOutputStream"><rect codeLine="8" fill="#F1F1F1" height="100.8281" id="EncryptionOutputStream" rx="2.5" ry="2.5" style="stroke:#181818;stroke-width:0.5;" width="196.4199" x="451" y="203.5"/><ellipse cx="471.0058" cy="219.5" fill="#ADD1B2" rx="11" ry="11" style="stroke:#181818;stroke-width:1;"/><path d="M473.7714,215.375 Q473.9277,215.1563 474.1152,215.0469 Q474.3027,214.9375 474.5214,214.9375 Q474.8964,214.9375 475.1308,215.2031 Q475.3652,215.4531 475.3652,216.0625 L475.3652,217.5156 Q475.3652,218.125 475.1308,218.3906 Q474.8964,218.6563 474.5214,218.6563 Q474.1777,218.6563 473.9746,218.4531 Q473.7714,218.2656 473.6621,217.75 Q473.6152,217.3906 473.4277,217.2031 Q473.0996,216.8281 472.4902,216.6094 Q471.8808,216.3906 471.2558,216.3906 Q470.4902,216.3906 469.8496,216.7188 Q469.2246,217.0469 468.7246,217.7969 Q468.2402,218.5469 468.2402,219.5781 L468.2402,220.6719 Q468.2402,221.9063 469.1308,222.7344 Q470.0214,223.5469 471.6152,223.5469 Q472.5527,223.5469 473.2089,223.2969 Q473.5996,223.1406 474.0214,222.7031 Q474.2871,222.4375 474.4277,222.3594 Q474.5839,222.2813 474.7871,222.2813 Q475.1152,222.2813 475.3652,222.5469 Q475.6308,222.7969 475.6308,223.1406 Q475.6308,223.4844 475.2871,223.8906 Q474.7871,224.4688 473.9902,224.7969 Q472.9121,225.25 471.6152,225.25 Q470.0996,225.25 468.8964,224.625 Q467.9121,224.125 467.2246,223.0625 Q466.5371,221.9844 466.5371,220.7031 L466.5371,219.5469 Q466.5371,218.2188 467.1464,217.0781 Q467.7714,215.9219 468.8652,215.3125 Q469.9589,214.6875 471.1933,214.6875 Q471.9277,214.6875 472.5683,214.8594 Q473.2246,215.0156 473.7714,215.375 Z " fill="#000000"/><text fill="#000000" font-family="sans-serif" font-size="14" lengthAdjust="spacing" textLength="153.2959" x="486.1182" y="225.2285">EncryptionOutputStream</text><line style="stroke:#181818;stroke-width:0.5;" x1="452" x2="646.4199" y1="235.5" y2="235.5"/><rect fill="transparent" height="6" style="stroke:#C82930;stroke-width:1;" width="6" x="459" y="246.8047"/><text fill="#000000" font-family="sans-serif" font-size="14" lengthAdjust="spacing" textLength="170.4199" x="471" y="254.0332">encryptor : lab2.IEncryption</text><line style="stroke:#181818;stroke-width:0.5;" x1="452" x2="646.4199" y1="261.1094" y2="261.1094"/><ellipse cx="462" cy="275.4141" fill="#84BE84" rx="3" ry="3" style="stroke:#038048;stroke-width:1;"/><text fill="#000000" font-family="sans-serif" font-size="14" lengthAdjust="spacing" textLength="80.9238" x="471" y="279.6426">&lt;init&gt;() : void</text><ellipse cx="462" cy="293.0234" fill="#84BE84" rx="3" ry="3" style="stroke:#038048;stroke-width:1;"/><text fill="#000000" font-family="sans-serif" font-size="14" lengthAdjust="spacing" textLength="76.2344" x="471" y="297.252">write() : void</text></g><!--class IEncryption--><g id="elem_IEncryption"><rect codeLine="17" fill="#F1F1F1" height="65.6094" id="IEncryption" rx="2.5" ry="2.5" style="stroke:#181818;stroke-width:0.5;" width="120.1377" x="353" y="400"/><ellipse cx="376.1466" cy="416" fill="#ADD1B2" rx="11" ry="11" style="stroke:#181818;stroke-width:1;"/><path d="M378.9122,411.875 Q379.0685,411.6563 379.256,411.5469 Q379.4435,411.4375 379.6622,411.4375 Q380.0372,411.4375 380.2716,411.7031 Q380.506,411.9531 380.506,412.5625 L380.506,414.0156 Q380.506,414.625 380.2716,414.8906 Q380.0372,415.1563 379.6622,415.1563 Q379.3185,415.1563 379.1153,414.9531 Q378.9122,414.7656 378.8028,414.25 Q378.756,413.8906 378.5685,413.7031 Q378.2403,413.3281 377.631,413.1094 Q377.0216,412.8906 376.3966,412.8906 Q375.631,412.8906 374.9903,413.2188 Q374.3653,413.5469 373.8653,414.2969 Q373.381,415.0469 373.381,416.0781 L373.381,417.1719 Q373.381,418.4063 374.2716,419.2344 Q375.1622,420.0469 376.756,420.0469 Q377.6935,420.0469 378.3497,419.7969 Q378.7403,419.6406 379.1622,419.2031 Q379.4278,418.9375 379.5685,418.8594 Q379.7247,418.7813 379.9278,418.7813 Q380.256,418.7813 380.506,419.0469 Q380.7716,419.2969 380.7716,419.6406 Q380.7716,419.9844 380.4278,420.3906 Q379.9278,420.9688 379.131,421.2969 Q378.0528,421.75 376.756,421.75 Q375.2403,421.75 374.0372,421.125 Q373.0528,420.625 372.3653,419.5625 Q371.6778,418.4844 371.6778,417.2031 L371.6778,416.0469 Q371.6778,414.7188 372.2872,413.5781 Q372.9122,412.4219 374.006,411.8125 Q375.0997,411.1875 376.3341,411.1875 Q377.0685,411.1875 377.7091,411.3594 Q378.3653,411.5156 378.9122,411.875 Z " fill="#000000"/><text fill="#000000" font-family="sans-serif" font-size="14" lengthAdjust="spacing" textLength="70.0342" x="391.9569" y="421.7285">IEncryption</text><line style="stroke:#181818;stroke-width:0.5;" x1="354" x2="472.1377" y1="432" y2="432"/><line style="stroke:#181818;stroke-width:0.5;" x1="354" x2="472.1377" y1="440" y2="440"/><ellipse cx="364" cy="454.3047" fill="#84BE84" rx="3" ry="3" style="stroke:#038048;stroke-width:1;"/><text fill="#000000" font-family="sans-serif" font-size="14" lengthAdjust="spacing" textLength="94.1377" x="373" y="458.5332">encrypt() : char</text></g><!--class SubstitutionCipher--><g id="elem_SubstitutionCipher"><rect codeLine="20" fill="#F1F1F1" height="136.0469" id="SubstitutionCipher" rx="2.5" ry="2.5" style="stroke:#181818;stroke-width:0.5;" width="161.3994" x="254.5" y="186"/><ellipse cx="276.25" cy="202" fill="#ADD1B2" rx="11" ry="11" style="stroke:#181818;stroke-width:1;"/><path d="M279.0156,197.875 Q279.1719,197.6563 279.3594,197.5469 Q279.5469,197.4375 279.7656,197.4375 Q280.1406,197.4375 280.375,197.7031 Q280.6094,197.9531 280.6094,198.5625 L280.6094,200.0156 Q280.6094,200.625 280.375,200.8906 Q280.1406,201.1563 279.7656,201.1563 Q279.4219,201.1563 279.2188,200.9531 Q279.0156,200.7656 278.9063,200.25 Q278.8594,199.8906 278.6719,199.7031 Q278.3438,199.3281 277.7344,199.1094 Q277.125,198.8906 276.5,198.8906 Q275.7344,198.8906 275.0938,199.2188 Q274.4688,199.5469 273.9688,200.2969 Q273.4844,201.0469 273.4844,202.0781 L273.4844,203.1719 Q273.4844,204.4063 274.375,205.2344 Q275.2656,206.0469 276.8594,206.0469 Q277.7969,206.0469 278.4531,205.7969 Q278.8438,205.6406 279.2656,205.2031 Q279.5313,204.9375 279.6719,204.8594 Q279.8281,204.7813 280.0313,204.7813 Q280.3594,204.7813 280.6094,205.0469 Q280.875,205.2969 280.875,205.6406 Q280.875,205.9844 280.5313,206.3906 Q280.0313,206.9688 279.2344,207.2969 Q278.1563,207.75 276.8594,207.75 Q275.3438,207.75 274.1406,207.125 Q273.1563,206.625 272.4688,205.5625 Q271.7813,204.4844 271.7813,203.2031 L271.7813,202.0469 Q271.7813,200.7188 272.3906,199.5781 Q273.0156,198.4219 274.1094,197.8125 Q275.2031,197.1875 276.4375,197.1875 Q277.1719,197.1875 277.8125,197.3594 Q278.4688,197.5156 279.0156,197.875 Z " fill="#000000"/><text fill="#000000" font-family="sans-serif" font-size="14" lengthAdjust="spacing" textLength="114.3994" x="291.75" y="207.7285">SubstitutionCipher</text><line style="stroke:#181818;stroke-width:0.5;" x1="255.5" x2="414.8994" y1="218" y2="218"/><rect fill="transparent" height="6" style="stroke:#C82930;stroke-width:1;" width="6" x="262.5" y="229.3047"/><text fill="#000000" font-family="sans-serif" font-size="14" lengthAdjust="spacing" textLength="135.3994" x="274.5" y="236.5332">encryptionKey : char[]</text><rect fill="transparent" height="6" style="stroke:#C82930;stroke-width:1;" width="6" x="262.5" y="246.9141"/><text fill="#000000" font-family="sans-serif" font-size="14" lengthAdjust="spacing" textLength="135.3994" x="274.5" y="254.1426">decryptionKey : char[]</text><line style="stroke:#181818;stroke-width:0.5;" x1="255.5" x2="414.8994" y1="261.2188" y2="261.2188"/><ellipse cx="265.5" cy="275.5234" fill="#84BE84" rx="3" ry="3" style="stroke:#038048;stroke-width:1;"/><text fill="#000000" font-family="sans-serif" font-size="14" lengthAdjust="spacing" textLength="80.9238" x="274.5" y="279.752">&lt;init&gt;() : void</text><ellipse cx="265.5" cy="293.1328" fill="#84BE84" rx="3" ry="3" style="stroke:#038048;stroke-width:1;"/><text fill="#000000" font-family="sans-serif" font-size="14" lengthAdjust="spacing" textLength="94.1377" x="274.5" y="297.3613">encrypt() : char</text><ellipse cx="265.5" cy="310.7422" fill="#84BE84" rx="3" ry="3" style="stroke:#038048;stroke-width:1;"/><text fill="#000000" font-family="sans-serif" font-size="14" lengthAdjust="spacing" textLength="94.1377" x="274.5" y="314.9707">decrypt() : char</text></g><!--class TextEditorApp--><g id="elem_TextEditorApp"><rect codeLine="29" fill="#F1F1F1" height="83.2188" id="TextEditorApp" rx="2.5" ry="2.5" style="stroke:#181818;stroke-width:0.5;" width="178.4961" x="246" y="42"/><ellipse cx="287.0038" cy="58" fill="#ADD1B2" rx="11" ry="11" style="stroke:#181818;stroke-width:1;"/><path d="M289.7694,53.875 Q289.9256,53.6563 290.1131,53.5469 Q290.3006,53.4375 290.5194,53.4375 Q290.8944,53.4375 291.1288,53.7031 Q291.3631,53.9531 291.3631,54.5625 L291.3631,56.0156 Q291.3631,56.625 291.1288,56.8906 Q290.8944,57.1563 290.5194,57.1563 Q290.1756,57.1563 289.9725,56.9531 Q289.7694,56.7656 289.66,56.25 Q289.6131,55.8906 289.4256,55.7031 Q289.0975,55.3281 288.4881,55.1094 Q287.8788,54.8906 287.2538,54.8906 Q286.4881,54.8906 285.8475,55.2188 Q285.2225,55.5469 284.7225,56.2969 Q284.2381,57.0469 284.2381,58.0781 L284.2381,59.1719 Q284.2381,60.4063 285.1288,61.2344 Q286.0194,62.0469 287.6131,62.0469 Q288.5506,62.0469 289.2069,61.7969 Q289.5975,61.6406 290.0194,61.2031 Q290.285,60.9375 290.4256,60.8594 Q290.5819,60.7813 290.785,60.7813 Q291.1131,60.7813 291.3631,61.0469 Q291.6288,61.2969 291.6288,61.6406 Q291.6288,61.9844 291.285,62.3906 Q290.785,62.9688 289.9881,63.2969 Q288.91,63.75 287.6131,63.75 Q286.0975,63.75 284.8944,63.125 Q283.91,62.625 283.2225,61.5625 Q282.535,60.4844 282.535,59.2031 L282.535,58.0469 Q282.535,56.7188 283.1444,55.5781 Q283.7694,54.4219 284.8631,53.8125 Q285.9569,53.1875 287.1913,53.1875 Q287.9256,53.1875 288.5663,53.3594 Q289.2225,53.5156 289.7694,53.875 Z " fill="#000000"/><text fill="#000000" font-family="sans-serif" font-size="14" lengthAdjust="spacing" textLength="88.71" x="306.7824" y="63.7285">TextEditorApp</text><line style="stroke:#181818;stroke-width:0.5;" x1="247" x2="423.4961" y1="74" y2="74"/><line style="stroke:#181818;stroke-width:0.5;" x1="247" x2="423.4961" y1="82" y2="82"/><ellipse cx="257" cy="96.3047" fill="#84BE84" rx="3" ry="3" style="stroke:#038048;stroke-width:1;"/><text fill="#000000" font-family="sans-serif" font-size="14" lengthAdjust="spacing" textLength="80.9238" x="266" y="100.5332">&lt;init&gt;() : void</text><ellipse cx="257" cy="113.9141" fill="#84BE84" rx="3" ry="3" style="stroke:#038048;stroke-width:1;"/><text fill="#000000" font-family="sans-serif" font-size="14" lengthAdjust="spacing" textLength="152.4961" x="266" y="118.1426">main(String[] args) : void</text></g><!--link DecryptionInputStream to IDecryption--><g id="link_DecryptionInputStream_IDecryption"><path codeLine="7" d="M146.43,313.45 C158.95,342.25 171.1867,370.358 181.6567,394.428 " fill="transparent" id="DecryptionInputStream-to-IDecryption" style="stroke:#181818;stroke-width:1;"/><polygon fill="#181818" points="184.05,399.93,184.1281,390.0815,182.0556,395.345,176.7921,393.2725,184.05,399.93" style="stroke:#181818;stroke-width:1;"/></g><!--link EncryptionOutputStream to IEncryption--><g id="link_EncryptionOutputStream_IEncryption"><path codeLine="13" d="M511.16,304.58 C495.64,324.88 477.48,348.58 461,370 C453.53,379.71 449.0523,385.5051 441.6223,395.1051 " fill="transparent" id="EncryptionOutputStream-to-IEncryption" style="stroke:#181818;stroke-width:1;"/><polygon fill="#181818" points="437.95,399.85,446.6218,395.1809,441.0103,395.8959,440.2953,390.2844,437.95,399.85" style="stroke:#181818;stroke-width:1;"/></g><!--link SubstitutionCipher to IEncryption--><g id="link_SubstitutionCipher_IEncryption"><path codeLine="27" d="M364.6,322.17 C376.32,348.77 381.9946,361.627 391.5346,383.287 " fill="transparent" id="SubstitutionCipher-to-IEncryption" style="stroke:#181818;stroke-width:1;stroke-dasharray:7.0,7.0;"/><polygon fill="transparent" points="398.79,399.76,397.0256,380.8686,386.0436,385.7055,398.79,399.76" style="stroke:#181818;stroke-width:1;"/><text fill="#000000" font-family="sans-serif" font-size="13" lengthAdjust="spacing" textLength="66.4663" x="386" y="366.4951">implements</text></g><!--link SubstitutionCipher to IDecryption--><g id="link_SubstitutionCipher_IDecryption"><path codeLine="28" d="M283.01,322.17 C262.42,348.77 250.7395,363.8673 233.9695,385.5273 " fill="transparent" id="SubstitutionCipher-to-IDecryption" style="stroke:#181818;stroke-width:1;stroke-dasharray:7.0,7.0;"/><polygon fill="transparent" points="222.95,399.76,238.7138,389.2005,229.2253,381.8541,222.95,399.76" style="stroke:#181818;stroke-width:1;"/><text fill="#000000" font-family="sans-serif" font-size="13" lengthAdjust="spacing" textLength="66.4663" x="259" y="366.4951">implements</text></g><!--link TextEditorApp to SubstitutionCipher--><g id="link_TextEditorApp_SubstitutionCipher"><path codeLine="33" d="M335,125.29 C335,143.5 335,159.45 335,179.97 " fill="transparent" id="TextEditorApp-to-SubstitutionCipher" style="stroke:#181818;stroke-width:1;"/><polygon fill="#181818" points="335,185.97,339,176.97,335,180.97,331,176.97,335,185.97" style="stroke:#181818;stroke-width:1;"/></g><!--SRC=[ZPB1JiCm38RlUueSXwRsm16XIGXsc7RWC6xJ3bbhRPPQDqfSO0BUdT1bJTeq4pdQ_ktFlrDKqXXHoSDz_WA5FYl6XjQaMjwo1bcBhvcmBnFb9TjeyN0fN_lwhcGX7f6Gb_CxM_7UOEcYjalPnP1uAlGpkp4zovRnjC8ph-WQVMqvXWOQGtl1JUWFZGm-w1WJqpnaq3s03DWTsU9gPpUYE4bjHuGAtwXNk5qIYcrxC8pS_acUKPr0ZqsmYGsSdNYt7vvrAfdo9W99RfGYo_Fls37x6sfLGGt4vZzAR-f06NZo1f-yAj6U_qcftiVffMg9DBVtH3hkzaBgenaVVzYjltaC-Gi0]--></g></svg>
