<svg xmlns="http://www.w3.org/2000/svg" xmlns:xlink="http://www.w3.org/1999/xlink" contentStyleType="text/css" height="476px" preserveAspectRatio="none" style="width:742px;height:476px;background:#FFFFFF;" version="1.1" viewBox="0 0 742 476" width="742px" zoomAndPan="magnify"><defs/><g><!--cluster lab2--><g id="cluster_lab2"><path d="M8.5,6 L43.5088,6 A3.75,3.75 0 0 1 46.0088,8.5 L53.0088,28.2969 L732.5,28.2969 A2.5,2.5 0 0 1 735,30.7969 L735,466.5 A2.5,2.5 0 0 1 732.5,469 L8.5,469 A2.5,2.5 0 0 1 6,466.5 L6,8.5 A2.5,2.5 0 0 1 8.5,6 " fill="none" style="stroke:#000000;stroke-width:1.5;"/><line style="stroke:#000000;stroke-width:1.5;" x1="6" x2="53.0088" y1="28.2969" y2="28.2969"/><text fill="#000000" font-family="sans-serif" font-size="14" font-weight="bold" lengthAdjust="spacing" textLength="34.0088" x="10" y="20.9951">lab2</text></g><!--class DecryptionInputStream--><g id="elem_DecryptionInputStream"><rect codeLine="1" fill="#F1F1F1" height="113.1875" id="DecryptionInputStream" rx="2.5" ry="2.5" style="stroke:#181818;stroke-width:0.5;" width="223.2305" x="21.5" y="191"/><ellipse cx="48.7317" cy="207" fill="#ADD1B2" rx="11" ry="11" style="stroke:#181818;stroke-width:1;"/><path d="M51.7005,212.6406 Q51.1224,212.9375 50.4817,213.0781 Q49.8411,213.2344 49.138,213.2344 Q46.638,213.2344 45.3099,211.5938 Q43.9974,209.9375 43.9974,206.8125 Q43.9974,203.6875 45.3099,202.0313 Q46.638,200.375 49.138,200.375 Q49.8411,200.375 50.4817,200.5313 Q51.138,200.6875 51.7005,200.9844 L51.7005,203.7031 Q51.0755,203.125 50.4817,202.8594 Q49.888,202.5781 49.263,202.5781 Q47.9192,202.5781 47.2317,203.6563 Q46.5442,204.7188 46.5442,206.8125 Q46.5442,208.9063 47.2317,209.9844 Q47.9192,211.0469 49.263,211.0469 Q49.888,211.0469 50.4817,210.7813 Q51.0755,210.5 51.7005,209.9219 L51.7005,212.6406 Z " fill="#000000"/><text fill="#000000" font-family="sans-serif" font-size="14" lengthAdjust="spacing" textLength="164.0488" x="65.4499" y="211.8467">DecryptionInputStream</text><line style="stroke:#181818;stroke-width:0.5;" x1="22.5" x2="243.7305" y1="223" y2="223"/><rect fill="none" height="6" style="stroke:#C82930;stroke-width:1;" width="6" x="29.5" y="233.6484"/><text fill="#000000" font-family="sans-serif" font-size="14" lengthAdjust="spacing" textLength="197.2305" x="41.5" y="239.9951">decryptor : lab2.IDecryption</text><line style="stroke:#181818;stroke-width:0.5;" x1="22.5" x2="243.7305" y1="247.2969" y2="247.2969"/><ellipse cx="32.5" cy="260.9453" fill="#84BE84" rx="3" ry="3" style="stroke:#038048;stroke-width:1;"/><text fill="#000000" font-family="sans-serif" font-size="14" lengthAdjust="spacing" textLength="99.7705" x="41.5" y="264.292">&lt;init&gt;() : void</text><ellipse cx="32.5" cy="277.2422" fill="#84BE84" rx="3" ry="3" style="stroke:#038048;stroke-width:1;"/><text fill="#000000" font-family="sans-serif" font-size="14" lengthAdjust="spacing" textLength="74.6279" x="41.5" y="280.5889">read() : int</text><ellipse cx="32.5" cy="293.5391" fill="#84BE84" rx="3" ry="3" style="stroke:#038048;stroke-width:1;"/><text fill="#000000" font-family="sans-serif" font-size="14" lengthAdjust="spacing" textLength="74.6279" x="41.5" y="296.8857">read() : int</text></g><!--class EncryptionOutputStream--><g id="elem_EncryptionOutputStream"><rect codeLine="7" fill="#F1F1F1" height="96.8906" id="EncryptionOutputStream" rx="2.5" ry="2.5" style="stroke:#181818;stroke-width:0.5;" width="221.542" x="497" y="199"/><ellipse cx="518.6546" cy="215" fill="#ADD1B2" rx="11" ry="11" style="stroke:#181818;stroke-width:1;"/><path d="M521.6234,220.6406 Q521.0453,220.9375 520.4046,221.0781 Q519.764,221.2344 519.0609,221.2344 Q516.5609,221.2344 515.2328,219.5938 Q513.9203,217.9375 513.9203,214.8125 Q513.9203,211.6875 515.2328,210.0313 Q516.5609,208.375 519.0609,208.375 Q519.764,208.375 520.4046,208.5313 Q521.0609,208.6875 521.6234,208.9844 L521.6234,211.7031 Q520.9984,211.125 520.4046,210.8594 Q519.8109,210.5781 519.1859,210.5781 Q517.8421,210.5781 517.1546,211.6563 Q516.4671,212.7188 516.4671,214.8125 Q516.4671,216.9063 517.1546,217.9844 Q517.8421,219.0469 519.1859,219.0469 Q519.8109,219.0469 520.4046,218.7813 Q520.9984,218.5 521.6234,217.9219 L521.6234,220.6406 Z " fill="#000000"/><text fill="#000000" font-family="sans-serif" font-size="14" lengthAdjust="spacing" textLength="174.7539" x="534.1334" y="219.8467">EncryptionOutputStream</text><line style="stroke:#181818;stroke-width:0.5;" x1="498" x2="717.542" y1="231" y2="231"/><rect fill="none" height="6" style="stroke:#C82930;stroke-width:1;" width="6" x="505" y="241.6484"/><text fill="#000000" font-family="sans-serif" font-size="14" lengthAdjust="spacing" textLength="195.542" x="517" y="247.9951">encryptor : lab2.IEncryption</text><line style="stroke:#181818;stroke-width:0.5;" x1="498" x2="717.542" y1="255.2969" y2="255.2969"/><ellipse cx="508" cy="268.9453" fill="#84BE84" rx="3" ry="3" style="stroke:#038048;stroke-width:1;"/><text fill="#000000" font-family="sans-serif" font-size="14" lengthAdjust="spacing" textLength="99.7705" x="517" y="272.292">&lt;init&gt;() : void</text><ellipse cx="508" cy="285.2422" fill="#84BE84" rx="3" ry="3" style="stroke:#038048;stroke-width:1;"/><text fill="#000000" font-family="sans-serif" font-size="14" lengthAdjust="spacing" textLength="89.3662" x="517" y="288.5889">write() : void</text></g><!--class IDecryption--><g id="elem_IDecryption"><rect codeLine="12" fill="#F1F1F1" height="64.2969" id="IDecryption" rx="2.5" ry="2.5" style="stroke:#181818;stroke-width:0.5;" width="135.0605" x="151.5" y="389"/><ellipse cx="176.4431" cy="405" fill="#ADD1B2" rx="11" ry="11" style="stroke:#181818;stroke-width:1;"/><path d="M179.4118,410.6406 Q178.8337,410.9375 178.1931,411.0781 Q177.5524,411.2344 176.8493,411.2344 Q174.3493,411.2344 173.0212,409.5938 Q171.7087,407.9375 171.7087,404.8125 Q171.7087,401.6875 173.0212,400.0313 Q174.3493,398.375 176.8493,398.375 Q177.5524,398.375 178.1931,398.5313 Q178.8493,398.6875 179.4118,398.9844 L179.4118,401.7031 Q178.7868,401.125 178.1931,400.8594 Q177.5993,400.5781 176.9743,400.5781 Q175.6306,400.5781 174.9431,401.6563 Q174.2556,402.7188 174.2556,404.8125 Q174.2556,406.9063 174.9431,407.9844 Q175.6306,409.0469 176.9743,409.0469 Q177.5993,409.0469 178.1931,408.7813 Q178.7868,408.5 179.4118,407.9219 L179.4118,410.6406 Z " fill="#000000"/><text fill="#000000" font-family="sans-serif" font-size="14" lengthAdjust="spacing" textLength="80.9648" x="192.6526" y="409.8467">IDecryption</text><line style="stroke:#181818;stroke-width:0.5;" x1="152.5" x2="285.5605" y1="421" y2="421"/><line style="stroke:#181818;stroke-width:0.5;" x1="152.5" x2="285.5605" y1="429" y2="429"/><ellipse cx="162.5" cy="442.6484" fill="#84BE84" rx="3" ry="3" style="stroke:#038048;stroke-width:1;"/><text fill="#000000" font-family="sans-serif" font-size="14" lengthAdjust="spacing" textLength="109.0605" x="171.5" y="445.9951">decrypt() : char</text></g><!--class IEncryption--><g id="elem_IEncryption"><rect codeLine="15" fill="#F1F1F1" height="64.2969" id="IEncryption" rx="2.5" ry="2.5" style="stroke:#181818;stroke-width:0.5;" width="135.0469" x="388.5" y="389"/><ellipse cx="414.1906" cy="405" fill="#ADD1B2" rx="11" ry="11" style="stroke:#181818;stroke-width:1;"/><path d="M417.1593,410.6406 Q416.5812,410.9375 415.9406,411.0781 Q415.3,411.2344 414.5968,411.2344 Q412.0968,411.2344 410.7687,409.5938 Q409.4562,407.9375 409.4562,404.8125 Q409.4562,401.6875 410.7687,400.0313 Q412.0968,398.375 414.5968,398.375 Q415.3,398.375 415.9406,398.5313 Q416.5968,398.6875 417.1593,398.9844 L417.1593,401.7031 Q416.5343,401.125 415.9406,400.8594 Q415.3468,400.5781 414.7218,400.5781 Q413.3781,400.5781 412.6906,401.6563 Q412.0031,402.7188 412.0031,404.8125 Q412.0031,406.9063 412.6906,407.9844 Q413.3781,409.0469 414.7218,409.0469 Q415.3468,409.0469 415.9406,408.7813 Q416.5343,408.5 417.1593,407.9219 L417.1593,410.6406 Z " fill="#000000"/><text fill="#000000" font-family="sans-serif" font-size="14" lengthAdjust="spacing" textLength="79.29" x="430.5663" y="409.8467">IEncryption</text><line style="stroke:#181818;stroke-width:0.5;" x1="389.5" x2="522.5469" y1="421" y2="421"/><line style="stroke:#181818;stroke-width:0.5;" x1="389.5" x2="522.5469" y1="429" y2="429"/><ellipse cx="399.5" cy="442.6484" fill="#84BE84" rx="3" ry="3" style="stroke:#038048;stroke-width:1;"/><text fill="#000000" font-family="sans-serif" font-size="14" lengthAdjust="spacing" textLength="109.0469" x="408.5" y="445.9951">encrypt() : char</text></g><!--class SubstitutionCipher--><g id="elem_SubstitutionCipher"><rect codeLine="18" fill="#F1F1F1" height="129.4844" id="SubstitutionCipher" rx="2.5" ry="2.5" style="stroke:#181818;stroke-width:0.5;" width="182.4678" x="280" y="183"/><ellipse cx="304.0787" cy="199" fill="#ADD1B2" rx="11" ry="11" style="stroke:#181818;stroke-width:1;"/><path d="M307.0474,204.6406 Q306.4693,204.9375 305.8287,205.0781 Q305.188,205.2344 304.4849,205.2344 Q301.9849,205.2344 300.6568,203.5938 Q299.3443,201.9375 299.3443,198.8125 Q299.3443,195.6875 300.6568,194.0313 Q301.9849,192.375 304.4849,192.375 Q305.188,192.375 305.8287,192.5313 Q306.4849,192.6875 307.0474,192.9844 L307.0474,195.7031 Q306.4224,195.125 305.8287,194.8594 Q305.2349,194.5781 304.6099,194.5781 Q303.2662,194.5781 302.5787,195.6563 Q301.8912,196.7188 301.8912,198.8125 Q301.8912,200.9063 302.5787,201.9844 Q303.2662,203.0469 304.6099,203.0469 Q305.2349,203.0469 305.8287,202.7813 Q306.4224,202.5 307.0474,201.9219 L307.0474,204.6406 Z " fill="#000000"/><text fill="#000000" font-family="sans-serif" font-size="14" lengthAdjust="spacing" textLength="130.293" x="320.0961" y="203.8467">SubstitutionCipher</text><line style="stroke:#181818;stroke-width:0.5;" x1="281" x2="461.4678" y1="215" y2="215"/><rect fill="none" height="6" style="stroke:#C82930;stroke-width:1;" width="6" x="288" y="225.6484"/><text fill="#000000" font-family="sans-serif" font-size="14" lengthAdjust="spacing" textLength="156.4541" x="300" y="231.9951">encryptionKey : char[]</text><rect fill="none" height="6" style="stroke:#C82930;stroke-width:1;" width="6" x="288" y="241.9453"/><text fill="#000000" font-family="sans-serif" font-size="14" lengthAdjust="spacing" textLength="156.4678" x="300" y="248.292">decryptionKey : char[]</text><line style="stroke:#181818;stroke-width:0.5;" x1="281" x2="461.4678" y1="255.5938" y2="255.5938"/><ellipse cx="291" cy="269.2422" fill="#84BE84" rx="3" ry="3" style="stroke:#038048;stroke-width:1;"/><text fill="#000000" font-family="sans-serif" font-size="14" lengthAdjust="spacing" textLength="99.7705" x="300" y="272.5889">&lt;init&gt;() : void</text><ellipse cx="291" cy="285.5391" fill="#84BE84" rx="3" ry="3" style="stroke:#038048;stroke-width:1;"/><text fill="#000000" font-family="sans-serif" font-size="14" lengthAdjust="spacing" textLength="109.0469" x="300" y="288.8857">encrypt() : char</text><ellipse cx="291" cy="301.8359" fill="#84BE84" rx="3" ry="3" style="stroke:#038048;stroke-width:1;"/><text fill="#000000" font-family="sans-serif" font-size="14" lengthAdjust="spacing" textLength="109.0605" x="300" y="305.1826">decrypt() : char</text></g><!--class TextEditorApp--><g id="elem_TextEditorApp"><rect codeLine="25" fill="#F1F1F1" height="80.5938" id="TextEditorApp" rx="2.5" ry="2.5" style="stroke:#181818;stroke-width:0.5;" width="202.8184" x="269.5" y="41"/><ellipse cx="316.7979" cy="57" fill="#ADD1B2" rx="11" ry="11" style="stroke:#181818;stroke-width:1;"/><path d="M319.7666,62.6406 Q319.1885,62.9375 318.5479,63.0781 Q317.9072,63.2344 317.2041,63.2344 Q314.7041,63.2344 313.376,61.5938 Q312.0635,59.9375 312.0635,56.8125 Q312.0635,53.6875 313.376,52.0313 Q314.7041,50.375 317.2041,50.375 Q317.9072,50.375 318.5479,50.5313 Q319.2041,50.6875 319.7666,50.9844 L319.7666,53.7031 Q319.1416,53.125 318.5479,52.8594 Q317.9541,52.5781 317.3291,52.5781 Q315.9854,52.5781 315.2979,53.6563 Q314.6104,54.7188 314.6104,56.8125 Q314.6104,58.9063 315.2979,59.9844 Q315.9854,61.0469 317.3291,61.0469 Q317.9541,61.0469 318.5479,60.7813 Q319.1416,60.5 319.7666,59.9219 L319.7666,62.6406 Z " fill="#000000"/><text fill="#000000" font-family="sans-serif" font-size="14" lengthAdjust="spacing" textLength="99.7227" x="337.2979" y="61.8467">TextEditorApp</text><line style="stroke:#181818;stroke-width:0.5;" x1="270.5" x2="471.3184" y1="73" y2="73"/><line style="stroke:#181818;stroke-width:0.5;" x1="270.5" x2="471.3184" y1="81" y2="81"/><ellipse cx="280.5" cy="94.6484" fill="#84BE84" rx="3" ry="3" style="stroke:#038048;stroke-width:1;"/><text fill="#000000" font-family="sans-serif" font-size="14" lengthAdjust="spacing" textLength="99.7705" x="289.5" y="97.9951">&lt;init&gt;() : void</text><ellipse cx="280.5" cy="110.9453" fill="#84BE84" rx="3" ry="3" style="stroke:#038048;stroke-width:1;"/><text fill="#000000" font-family="sans-serif" font-size="14" lengthAdjust="spacing" textLength="176.8184" x="289.5" y="114.292">main(String[] args) : void</text></g><!--link DecryptionInputStream to IDecryption--><g id="link_DecryptionInputStream_IDecryption"><path codeLine="29" d="M160.92,304.18 C174.95,332.15 188.7413,359.6462 200.5513,383.2062 " fill="none" id="DecryptionInputStream-to-IDecryption" style="stroke:#181818;stroke-width:1;"/><polygon fill="#181818" points="203.24,388.57,202.7828,378.7318,200.9994,384.1001,195.631,382.3168,203.24,388.57" style="stroke:#181818;stroke-width:1;"/></g><!--link EncryptionOutputStream to IEncryption--><g id="link_EncryptionOutputStream_IEncryption"><path codeLine="30" d="M565.66,296.27 C539.39,325.91 510.3895,358.6296 487.4895,384.4696 " fill="none" id="EncryptionOutputStream-to-IEncryption" style="stroke:#181818;stroke-width:1;"/><polygon fill="#181818" points="483.51,388.96,492.4728,384.8774,486.8262,385.218,486.4856,379.5714,483.51,388.96" style="stroke:#181818;stroke-width:1;"/></g><!--link SubstitutionCipher to IEncryption--><g id="link_SubstitutionCipher_IEncryption"><path codeLine="31" d="M402.65,312.36 C415.58,338.45 421.9517,351.3247 432.5217,372.6347 " fill="none" id="SubstitutionCipher-to-IEncryption" style="stroke:#181818;stroke-width:1;stroke-dasharray:7.0,7.0;"/><polygon fill="none" points="440.52,388.76,437.8968,369.9685,427.1465,375.3008,440.52,388.76" style="stroke:#181818;stroke-width:1;"/><text fill="#000000" font-family="sans-serif" font-size="13" lengthAdjust="spacing" textLength="76.9082" x="424" y="355.0669">implements</text></g><!--link SubstitutionCipher to IDecryption--><g id="link_SubstitutionCipher_IDecryption"><path codeLine="32" d="M314.4,312.36 C291.27,338.45 277.5201,353.9803 258.6301,375.2903 " fill="none" id="SubstitutionCipher-to-IDecryption" style="stroke:#181818;stroke-width:1;stroke-dasharray:7.0,7.0;"/><polygon fill="none" points="246.69,388.76,263.12,379.2703,254.1402,371.3102,246.69,388.76" style="stroke:#181818;stroke-width:1;"/><text fill="#000000" font-family="sans-serif" font-size="13" lengthAdjust="spacing" textLength="76.9082" x="286" y="355.0669">implements</text></g><!--link TextEditorApp to SubstitutionCipher--><g id="link_TextEditorApp_SubstitutionCipher"><path codeLine="33" d="M371,122.2 C371,140.4 371,156.43 371,176.86 " fill="none" id="TextEditorApp-to-SubstitutionCipher" style="stroke:#181818;stroke-width:1;"/><polygon fill="#181818" points="371,182.86,375,173.86,371,177.86,367,173.86,371,182.86" style="stroke:#181818;stroke-width:1;"/></g><!--SRC=[ZLAnZi8m3DtvYemWr0wC9uHq0WR4S0Et8ORGMc2fTQF4vK1m_twvKfgsQIiosk_PxpqdIgGn8f77MRY2IDyKOqORKZdlM8DCnNqax0j4_EncMdmyuHk7Bo1JCKT2Nemd5d79C2whTafSr92ug_GxYfo6DRrcVkNiYm1gYt24GH4_6XbSiR6pPgHSD7svBHZHMUeMmssj6AMq7iOkFnf6plyfIrHdq6rFjh65MqdU7vgfTpNxh7f2td7q3LTUnsYJ_LIgyjIz89L8OtiOfDF-8AG-cLgk0pyf21R-pncwkYFKhjmNPnW-VBJzOQbA80LYymxJ2VEPpOWgRVx0Fm00]--></g></svg>